<svg aria-hidden="true" style="position: absolute; width: 0; height: 0; overflow: hidden;" version="1.1"
     xmlns="http://www.w3.org/2000/svg" xmlns:xlink="http://www.w3.org/1999/xlink">
    <defs>
        <symbol id="icon-heartbeat" viewBox="0 0 28 28">
            <path d="M20 16h4.766c-0.187 0.203-0.313 0.313-0.344 0.344l-9.734 9.375c-0.187 0.187-0.438 0.281-0.688 0.281s-0.5-0.094-0.688-0.281l-9.75-9.406c-0.031-0.016-0.156-0.125-0.328-0.313h5.766c0.453 0 0.859-0.313 0.969-0.75l1.094-4.391 2.969 10.422c0.125 0.422 0.516 0.719 0.969 0.719v0c0.438 0 0.828-0.297 0.953-0.719l2.281-7.578 0.875 1.75c0.172 0.328 0.516 0.547 0.891 0.547zM28 9.312c0 1.797-0.781 3.437-1.609 4.688h-5.766l-1.734-3.453c-0.172-0.359-0.578-0.578-0.969-0.547-0.422 0.047-0.766 0.313-0.875 0.719l-2.016 6.719-3.063-10.719c-0.125-0.422-0.516-0.719-0.984-0.719-0.453 0-0.844 0.313-0.953 0.75l-1.813 7.25h-6.609c-0.828-1.25-1.609-2.891-1.609-4.688 0-4.578 2.797-7.313 7.469-7.313 2.734 0 5.297 2.156 6.531 3.375 1.234-1.219 3.797-3.375 6.531-3.375 4.672 0 7.469 2.734 7.469 7.313z"></path>
        </symbol>
        <symbol id="icon-directions_bike" viewBox="0 0 24 24">
            <path d="M18.984 20.484q1.453 0 2.484-1.008t1.031-2.461-1.031-2.484-2.484-1.031-2.461 1.031-1.008 2.484 1.008 2.461 2.461 1.008zM18.984 12q2.109 0 3.563 1.453t1.453 3.563-1.453 3.539-3.563 1.43-3.539-1.43-1.43-3.539 1.43-3.563 3.539-1.453zM10.781 10.5l2.203 2.297v6.188h-1.969v-4.969l-3.234-2.813q-0.563-0.375-0.563-1.406 0-0.844 0.563-1.406l2.813-2.813q0.375-0.563 1.406-0.563 0.891 0 1.594 0.563l1.922 1.922q1.5 1.5 3.563 1.5v2.016q-2.953 0-5.063-2.109l-0.797-0.797zM5.016 20.484q1.453 0 2.461-1.008t1.008-2.461-1.008-2.484-2.461-1.031-2.484 1.031-1.031 2.484 1.031 2.461 2.484 1.008zM5.016 12q2.109 0 3.539 1.453t1.43 3.563-1.43 3.539-3.539 1.43-3.563-1.43-1.453-3.539 1.453-3.563 3.563-1.453zM15.516 5.484q-0.797 0-1.406-0.586t-0.609-1.383 0.609-1.406 1.406-0.609 1.383 0.609 0.586 1.406-0.586 1.383-1.383 0.586z"></path>
        </symbol>
        <symbol id="icon-weights" viewBox="0 0 32 32">
            <path d="M23 17h-13v3.494c0 0.835-0.672 1.506-1.5 1.506-0.834 0-1.5-0.674-1.5-1.506v-0.579c-0.156 0.055-0.325 0.085-0.5 0.085-0.834 0-1.5-0.672-1.5-1.502v-1.498h-2v-1h2v-1.498c0-0.831 0.672-1.502 1.5-1.502 0.176 0 0.344 0.030 0.5 0.085v0-0.578c0-0.835 0.672-1.506 1.5-1.506 0.834 0 1.5 0.674 1.5 1.506v3.494h13v-3.494c0-0.835 0.672-1.506 1.5-1.506 0.834 0 1.5 0.674 1.5 1.506v0.579c0.156-0.055 0.325-0.085 0.5-0.085 0.834 0 1.5 0.672 1.5 1.502v1.498h2v1h-2v1.498c0 0.831-0.672 1.502-1.5 1.502-0.176 0-0.344-0.030-0.5-0.085v0.578c0 0.835-0.672 1.506-1.5 1.506-0.834 0-1.5-0.674-1.5-1.506v-3.494zM26.5 14c-0.276 0-0.5 0.215-0.5 0.498v4.005c0 0.275 0.232 0.498 0.5 0.498 0.276 0 0.5-0.215 0.5-0.498v-4.005c0-0.275-0.232-0.498-0.5-0.498v0zM6.5 14c-0.276 0-0.5 0.215-0.5 0.498v4.005c0 0.275 0.232 0.498 0.5 0.498 0.276 0 0.5-0.215 0.5-0.498v-4.005c0-0.275-0.232-0.498-0.5-0.498v0zM24.5 12c-0.276 0-0.5 0.222-0.5 0.51v7.981c0 0.281 0.232 0.51 0.5 0.51 0.276 0 0.5-0.222 0.5-0.51v-7.981c0-0.281-0.232-0.51-0.5-0.51v0zM8.5 12c-0.276 0-0.5 0.222-0.5 0.51v7.981c0 0.281 0.232 0.51 0.5 0.51 0.276 0 0.5-0.222 0.5-0.51v-7.981c0-0.281-0.232-0.51-0.5-0.51v0z"></path>
        </symbol>
        <symbol id="icon-horiz-ruler" viewBox="0 0 399.72 83.753">
            <g id="layer1" transform="translate(-330.87 -462.97)">
                <g id="g3953" stroke="#000" transform="matrix(4.4799 0 0 2.9866 -22.373 -404.56)">
                    <rect id="rect2953" height="26.206" width="88.002" y="291.39" x="79.463" stroke-width="1.5"
                          fill="#fff"/>
                    <g id="g3915" transform="matrix(1 0 0 .76435 .78697 68.514)">
                        <rect id="rect3725" height="19.539" width="1.8689" y="291.14" x="81.923" stroke-width=".26172"/>
                        <rect id="rect3727" height="9.7123" width="1.9425" y="291.1" x="92.505" stroke-width=".18812"/>
                        <rect id="rect3729" height="9.7123" width="1.9425" y="291.1" x="87.196" stroke-width=".18812"/>
                        <rect id="rect3731" height="9.7123" width="1.9425" y="291.1" x="97.814" stroke-width=".18812"/>
                        <rect id="rect3733" height="9.7123" width="1.9425" y="291.1" x="103.12" stroke-width=".18812"/>
                        <rect id="rect3765" height="19.539" width="1.8689" y="291.14" x="108.47" stroke-width=".26172"/>
                        <rect id="rect3767" height="9.7123" width="1.9425" y="291.1" x="119.05" stroke-width=".18812"/>
                        <rect id="rect3769" height="9.7123" width="1.9425" y="291.1" x="113.74" stroke-width=".18812"/>
                        <rect id="rect3771" height="9.7123" width="1.9425" y="291.1" x="124.36" stroke-width=".18812"/>
                        <rect id="rect3773" height="9.7123" width="1.9425" y="291.1" x="129.67" stroke-width=".18812"/>
                        <rect id="rect3779" height="19.539" width="1.8689" y="291.14" x="135.01" stroke-width=".26172"/>
                        <rect id="rect3781" height="9.7123" width="1.9425" y="291.1" x="145.6" stroke-width=".18812"/>
                        <rect id="rect3783" height="9.7123" width="1.9425" y="291.1" x="140.29" stroke-width=".18812"/>
                        <rect id="rect3785" height="9.7123" width="1.9425" y="291.1" x="150.91" stroke-width=".18812"/>
                        <rect id="rect3787" height="9.7123" width="1.9425" y="291.1" x="156.21" stroke-width=".18812"/>
                        <rect id="rect3907" height="19.539" width="1.8689" y="291.14" x="161.56" stroke-width=".26172"/>
                    </g>
                </g>
            </g>
        </symbol>
        <symbol id="icon-stopwatch" viewBox="0 0 43.5 46.82">
            <g
                    id="layer1"
                    transform="translate(-18.25 -17.292)"
            >
                <path
                        id="path2822"
                        d="m50 22.362c0 11.046-8.9543 20-20 20s-20-8.9543-20-20 8.9543-20 20-20 20 8.9543 20 20z"
                        transform="translate(10,20)"
                        stroke="#000"
                        stroke-width="3.5"
                        fill="none"
                />
                <path
                        id="path3598"
                        stroke-linejoin="round"
                        d="m40 27.362v15"
                        stroke="#000"
                        stroke-linecap="round"
                        stroke-width="1.5"
                        fill="none"
                />
                <path
                        id="path3624"
                        d="m55 42.362h-2"
                        stroke="#000"
                        stroke-width=".63246px"
                        fill="none"
                />
                <use
                        id="use3666"
                        xlink:href="#path3624"
                        transform="matrix(.86603 -.5 .5 .86603 -15.822 25.675)"
                        height="1052.3622"
                        width="744.09448"
                        y="0"
                        x="0"
                />
                <use
                        id="use3668"
                        xlink:href="#use3666"
                        transform="matrix(.86603 -.5 .5 .86603 -15.822 25.675)"
                        height="1052.3622"
                        width="744.09448"
                        y="0"
                        x="0"
                />
                <use
                        id="use3670"
                        xlink:href="#use3668"
                        transform="matrix(.86603 -.5 .5 .86603 -15.822 25.675)"
                        height="1052.3622"
                        width="744.09448"
                        y="0"
                        x="0"
                />
                <use
                        id="use3672"
                        xlink:href="#use3670"
                        transform="matrix(.86603 -.5 .5 .86603 -15.822 25.675)"
                        height="1052.3622"
                        width="744.09448"
                        y="0"
                        x="0"
                />
                <use
                        id="use3674"
                        xlink:href="#use3672"
                        transform="matrix(.86603 -.5 .5 .86603 -15.822 25.675)"
                        height="1052.3622"
                        width="744.09448"
                        y="0"
                        x="0"
                />
                <use
                        id="use3676"
                        xlink:href="#use3674"
                        transform="matrix(.86603 -.5 .5 .86603 -15.822 25.675)"
                        height="1052.3622"
                        width="744.09448"
                        y="0"
                        x="0"
                />
                <use
                        id="use3678"
                        xlink:href="#use3676"
                        transform="matrix(.86603 -.5 .5 .86603 -15.822 25.675)"
                        height="1052.3622"
                        width="744.09448"
                        y="0"
                        x="0"
                />
                <use
                        id="use3680"
                        xlink:href="#use3678"
                        transform="matrix(.86603 -.5 .5 .86603 -15.822 25.675)"
                        height="1052.3622"
                        width="744.09448"
                        y="0"
                        x="0"
                />
                <use
                        id="use3682"
                        xlink:href="#use3680"
                        transform="matrix(.86603 -.5 .5 .86603 -15.822 25.675)"
                        height="1052.3622"
                        width="744.09448"
                        y="0"
                        x="0"
                />
                <use
                        id="use3684"
                        xlink:href="#use3682"
                        transform="matrix(.86603 -.5 .5 .86603 -15.822 25.675)"
                        height="1052.3622"
                        width="744.09448"
                        y="0"
                        x="0"
                />
                <use
                        id="use3686"
                        xlink:href="#use3684"
                        transform="matrix(.86603 -.5 .5 .86603 -15.822 25.675)"
                        height="1052.3622"
                        width="744.09448"
                        y="0"
                        x="0"
                />
                <rect
                        id="rect3688"
                        stroke-linejoin="round"
                        ry=".30924"
                        height="2.5765"
                        width="3.7519"
                        stroke="#000"
                        stroke-linecap="round"
                        y="18.662"
                        x="38.124"
                        stroke-width="2.7481"
                />
                <rect
                        id="use3694"
                        stroke-linejoin="round"
                        transform="rotate(-30)"
                        height="2"
                        width="4"
                        stroke="#000"
                        stroke-linecap="round"
                        y="33.687"
                        x="11.46"
                        stroke-width="2.5"
                />
                <rect
                        id="use3696"
                        stroke-linejoin="round"
                        transform="rotate(30)"
                        height="2"
                        width="4"
                        stroke="#000"
                        stroke-linecap="round"
                        y="-6.3133"
                        x="53.822"
                        stroke-width="2.5"
                />
                <path
                        id="path4940"
                        style="block-progression:tb;color:#000000;text-transform:none;text-indent:0"
                        d="m39.506 42.013c-0.26424 0.17882-0.33655 0.5605-0.15772 0.82474 0.17882 0.26425 0.57805 0.3624 0.8423 0.18358 2.8365-1.8693 5.2344-3.6377 7.989-5.4239 0.23674-0.21948 0.27283-0.63046 0.05336-0.8672-0.21948-0.23673-0.65632-0.25528-0.89305-0.0358-2.6546 1.7984-5.3857 3.6608-7.8339 5.3186z"
                />
            </g
            >
        </symbol>
        <symbol id="icon-calendar" viewBox="0 0 499.9 513.15">
            <g id="layer1" transform="translate(-273.66 -336.9)">
                <g id="g4044" transform="matrix(.96593 -.25882 .25882 .96593 -29.139 137.91)">
                    <rect id="rect3240" opacity=".8" height="400" width="400" stroke="#000" y="389.51" x="214.29"
                          stroke-width="10" fill="none"/>
                    <rect id="rect4014" opacity=".8" height="108.44" width="405.58" y="386.71" x="211.49"
                          fill="#1a1a1a"/>
                    <g id="g4036" transform="translate(3.8826)" fill="#1a1a1a">
                        <g id="g4022">
                            <rect id="rect4018" y="356.65" width="11.746" x="262.52" height="52.857"/>
                            <rect id="rect4020" y="356.65" width="11.746" x="282.25" height="52.857"/>
                        </g>
                        <g id="g4026" transform="translate(264.29)">
                            <rect id="rect4028" y="356.65" width="11.746" x="262.52" height="52.857"/>
                            <rect id="rect4030" y="356.65" width="11.746" x="282.25" height="52.857"/>
                        </g>
                    </g>
                    <path id="rect4032" stroke="#333" stroke-width="4" fill="#808080"
                          d="m528.42 703.26v88.105h2.3303l85.774-85.809v-2.296h-88.105z"/>
                </g>
            </g>
        </symbol>
        <symbol id="icon-pencil" viewBox="0 0 20 20">
            <g transform="translate(-607.63544,-694.58531)">
                <g transform="matrix(0.81819669,0,0,0.81819669,498.63968,675.93757)" stroke-dasharray="none"
                   stroke-miterlimit="4" stroke-width="1.22220004">
                    <path stroke-linejoin="bevel" style="enable-background:accumulate;color:#000000;"
                          d="m127.22,15.83-7.1278,1.9099-5.2179-5.2179,1.9099-7.1278,7.1278-1.9099,5.2179,5.2179z"
                          fill-rule="nonzero"
                          transform="matrix(0.40551809,0.52006917,-0.33776041,0.08975004,107.01225,-36.852073)"
                          stroke="#333" stroke-linecap="square" stroke-miterlimit="4" stroke-dasharray="none"
                          stroke-width="2.65411043" fill="#FFF"/>
                    <path stroke-linejoin="bevel" style="enable-background:accumulate;color:#000000;"
                          d="m127.22,15.83-3.2752,4.5991c1.4588-5.9425-0.29557-16.54-5.5134-20.576l5.4806,3.6313,5.2179,5.2179z"
                          fill-rule="nonzero"
                          transform="matrix(-0.7801045,0.60827785,-0.13462519,-0.50664121,236.34134,-28.123362)"
                          stroke="#333" stroke-linecap="square" stroke-miterlimit="4" stroke-dasharray="none"
                          stroke-width="1.76940513" fill="#FFF"/>
                    <path stroke-linejoin="bevel"
                          d="m149.37,24.013-12.463,12.905,0.35355,3.182,12.463-12.905-0.35355-3.182" stroke="#333"
                          stroke-linecap="square" stroke-miterlimit="4" stroke-dasharray="none"
                          stroke-width="1.22220004" fill="#999"/>
                    <path stroke-linejoin="bevel" d="m149.72,27.195,3.5355,3.5355-12.463,12.905-3.5355-3.5355z"
                          stroke="#333" stroke-linecap="square" stroke-miterlimit="4" stroke-dasharray="none"
                          stroke-width="1.22220004" fill="#999"/>
                    <path stroke-linejoin="bevel"
                          d="m156.44,31.084-12.463,12.905-3.182-0.35355,12.463-12.905,3.182,0.35355" stroke="#333"
                          stroke-linecap="square" stroke-miterlimit="4" stroke-dasharray="none"
                          stroke-width="1.22220004" fill="#999"/>
                    <path stroke-linejoin="bevel" style="enable-background:accumulate;color:#000000;"
                          d="m134.55,44.964,0.43157-0.95045,1.5764,1.5549-1.0621,0.3285-1.0641,0.11662z"
                          fill-rule="nonzero" stroke="#333" stroke-linecap="square" stroke-miterlimit="4"
                          stroke-dasharray="none" stroke-width="1.22220004" fill="#999"/>
                    <path style="enable-background:accumulate;color:#000000;"
                          d="m153.04,28.767-1.3535-1.3535-0.13559-1.2181,1.2182,0.13537,1.3534,1.3535,0.13559,1.2181z"
                          fill-rule="nonzero" fill="#333"/>
                </g>
            </g>
        </symbol>
        <symbol id="icon-shovel" viewBox="0 0 440 502.86">
            <g id="layer1" transform="translate(-196.43 -263.08)">
                <g id="g4568">
                    <path id="path4562" fill="#fdfdfd" d="m196.43 514.5v-251.42h440v502.85h-440v-251.43z"/>
                    <path id="path4560" fill="#a89055"
                          d="m269.89 649.28c-23.35-6.27-31.78-9.67-35.39-14.25-6.61-8.41-13.12-63.76-8.54-72.62 2.8-5.39 75.5-56.48 103.82-72.96l9.28-5.39 17.02 13.53c19.22 15.26 26.75 16.76 39.73 7.88 4.54-3.1 19.73-13.66 33.76-23.46 14.04-9.8 39.42-26.91 56.42-38.01 41.2-26.94 75.84-51.76 85.37-61.2 12.15-12.02 30.1-8.67 30.1 5.62 0 6.29-2.26 8.29-32.8 28.98-10.98 7.44-39.86 28.92-64.18 47.72-24.31 18.81-53.2 40.08-64.18 47.28-10.98 7.19-21.57 14.73-23.53 16.74-6.56 6.76-3.99 16.15 7.85 28.61 6.27 6.62 11.31 13.4 11.2 15.07-0.18 2.65-70.54 55.51-102.86 77.28-14.76 9.94-23.42 9.83-63.07-0.82z"/>
                    <path id="path4558" fill="#2a292b"
                          d="m274.62 651.72c-17.49-4.61-33.76-10.06-36.15-12.1-5.92-5.07-8.93-18.41-11.23-49.69-1.49-20.24-1.03-27.33 1.96-30.39 4.96-5.08 75.17-53.74 95.66-66.3l15.51-9.5 17.28 14.12c24.58 20.1 25.84 19.87 70.45-12.9 9.88-7.26 19.09-13.2 20.46-13.2 3.71 0 14.45 15.47 12.99 18.72-0.69 1.55-11.07 9.4-23.06 17.45-32.53 21.84-34.11 29.41-11.18 53.51l9.96 10.48-36.08 27.23c-19.84 14.98-43.34 32.99-52.22 40.02-20.49 16.22-29.14 21.19-36.59 21.05-3.28-0.06-20.27-3.89-37.76-8.5z"/>
                    <path id="path4556" fill="#121114"
                          d="m273 647.71c-38.98-10.06-38.84-9.88-40.68-51.18-1.4-31.45-1.1-34.28 3.85-35.91 3.19-1.05 5.84-0.56 6.53 1.2 1.56 4.03 7.99 3.75 12.14-0.54 1.87-1.93 6-2.93 9.16-2.22 3.17 0.71 5.76 0.09 5.76-1.37 0-4.25-6.08-6.29-9.64-3.24-4 3.43-17.8 3.76-15.35 0.37 3.79-5.27 60.93-42.74 63.27-41.5 1.37 0.73 1.72 6.93 0.77 13.77-2.01 14.58 2.22 17.74 15.69 11.7 11.97-5.37 33.26-21.6 33.26-25.35 0-1.75-2.64-5.23-5.86-7.74-3.23-2.5-5.87-5.63-5.87-6.96s5.13 1.55 11.4 6.41 15.51 9.6 20.54 10.55c5.02 0.95 9.13 2.26 9.13 2.93 0 3.94-25.55 26.18-47.74 41.55-24.94 17.28-30.51 24.86-19.6 26.66 6.26 1.03 28.62-15.98 29.74-22.64 1.16-6.87 55.65-45.12 59.53-41.79 2.72 2.33-2.15 11.81-5.5 10.7-1.93-0.63-6.75 1.85-10.71 5.52l-7.19 6.67 7.33-1.91c4.04-1.06 8.99-2.45 11-3.1 2.02-0.65 3.67-0.04 3.67 1.35s4.6 8.39 10.23 15.56c12.25 15.61 12.95 14.39-24.31 42.79-13.61 10.37-35.16 27.06-47.89 37.09-27.26 21.47-29.42 21.79-72.66 10.63zm31.35-100.22c0.84-2.15-1.25-2.53-7.17-1.31-10.6 2.18-10.92 2.46-8.68 7.47 1.66 3.71 2.58 3.76 8.27 0.53 3.52-2.01 6.94-5.02 7.58-6.69z"/>
                </g>
            </g>
        </symbol>
    </defs>
</svg>